<svg id="Capa_1" data-name="Capa 1" xmlns="http://www.w3.org/2000/svg" viewBox="0 0 316 146"><defs><style>.cls-1{fill:#fff;}</style></defs><title>Vectores</title><path class="cls-1" d="M76.69,31.17c27.42-7.44,58.35,6.21,72.72,30.48a57.83,57.83,0,0,1,3.59,7c1.52-13.08,11.49-24.63,24-28.61a35.93,35.93,0,0,1,14.31-1.47,39.23,39.23,0,0,1,22.5,9.77c9.77,8.82,13.21,21.88,11.92,35,8.91-17.28,31.79-25.81,49.85-18.56,10.87,4.34,19.07,14,22.65,25.17A39.56,39.56,0,0,1,300,107.34a35.73,35.73,0,0,1-1.13,5.28c-.13.46-.3.89-.46,1.35H31.53a53.49,53.49,0,0,1-2.76-12c-.1-.82-.18-1.63-.23-2.44-.08-1-.1-2-.12-3C27.79,67.52,48.48,38.84,76.69,31.17Z"/></svg>