<svg id="Capa_1" data-name="Capa 1" xmlns="http://www.w3.org/2000/svg" viewBox="0 0 387.86 151.42"><defs><style>.cls-1{fill:#fff;}</style></defs><title>Vectores</title><path class="cls-1" d="M366.71,102c-8.68-6.34-20.82-8.76-32.2-7.54S310.89,100.83,302,107c-2.45-18.09-19.57-34.06-40.57-37.87-14.54-2.65-31.17,1-43.67,8.64A46.09,46.09,0,0,0,204.1,90.16a26.49,26.49,0,0,0-.15-7.7c-1.7-10.38-9.28-20.09-19.73-25.89-13-7.22-29.78-8.72-44.87-5.5-12.23,2.59-21,9.14-29.67,16.56-2,1.71-4,3.48-6.09,5.27a30.93,30.93,0,0,0-.89-6.57c-3.79-15.64-19.33-29.09-38-31.87-17.45-2.6-36.1,4.37-46.48,16.4a34.79,34.79,0,0,0-5.53,8.49c-9.13,20-4.31,46,8.86,65.11.34.51.69,1,1.05,1.49H377.72a17,17,0,0,0,.32-3.17C378.17,115,373.78,107.11,366.71,102Z"/></svg>