<svg xmlns="http://www.w3.org/2000/svg" viewBox="0 0 148 374.29"><defs><style>.cls-1{isolation:isolate;}.cls-2,.cls-4,.cls-5{fill:#313131;}.cls-12,.cls-15,.cls-20,.cls-23,.cls-3,.cls-5,.cls-9{mix-blend-mode:multiply;}.cls-13,.cls-16,.cls-4{mix-blend-mode:screen;}.cls-6{fill:red;}.cls-7{fill:#004924;}.cls-8,.cls-9{fill:#ecb533;}.cls-10,.cls-17{fill:#fff;}.cls-10{opacity:0.8;}.cls-11,.cls-12,.cls-13{fill:#767676;}.cls-12,.cls-16,.cls-20{opacity:0.5;}.cls-14,.cls-15,.cls-16{fill:#7f8489;}.cls-18{fill:#8a8a8a;}.cls-19,.cls-20{fill:#605e5f;}.cls-21{fill:#db332f;}.cls-22{fill:#c5232a;}.cls-23{opacity:0.3;}</style></defs><title>Vectores</title><g class="cls-1"><g id="Capa_1" data-name="Capa 1"><rect class="cls-2" x="49.74" y="149.03" width="52.9" height="3.64"/><g class="cls-3"><rect class="cls-2" x="49.74" y="151.39" width="52.9" height="1.28"/></g><rect x="68.8" y="203.04" width="14.77" height="25.95"/><path class="cls-2" d="M59.64,164.77a18.49,18.49,0,1,1-18.49-18.48A18.48,18.48,0,0,1,59.64,164.77Z"/><path class="cls-4" d="M41.15,147.29a18.49,18.49,0,0,1,18.48,18c0-.17,0-.34,0-.51a18.49,18.49,0,0,0-37,0c0,.17,0,.34,0,.51A18.48,18.48,0,0,1,41.15,147.29Z"/><path class="cls-5" d="M55.9,164.77A14.75,14.75,0,1,1,41.15,150,14.75,14.75,0,0,1,55.9,164.77Z"/><path class="cls-6" d="M54.83,164.77A13.67,13.67,0,1,1,41.15,151.1,13.68,13.68,0,0,1,54.83,164.77Z"/><path class="cls-2" d="M129.72,164.77a18.49,18.49,0,1,1-18.49-18.48A18.49,18.49,0,0,1,129.72,164.77Z"/><path class="cls-4" d="M111.23,147.29a18.49,18.49,0,0,1,18.48,18c0-.17,0-.34,0-.51a18.49,18.49,0,0,0-37,0c0,.17,0,.34,0,.51A18.49,18.49,0,0,1,111.23,147.29Z"/><path class="cls-5" d="M126,164.77A14.75,14.75,0,1,1,111.23,150,14.75,14.75,0,0,1,126,164.77Z"/><path class="cls-7" d="M124.9,164.77a13.67,13.67,0,1,1-13.67-13.67A13.67,13.67,0,0,1,124.9,164.77Z"/><rect class="cls-8" x="68.8" y="18.12" width="14.77" height="323.28"/><rect x="68.8" y="255.81" width="14.77" height="42.31"/><rect x="68.8" y="117.05" width="14.77" height="23.06"/><rect x="68.8" y="54.71" width="14.77" height="20.26"/><rect x="68.8" y="18.12" width="14.77" height="11.26"/><rect class="cls-9" x="78.83" y="18.12" width="4.75" height="323.28"/><rect class="cls-10" x="69.74" y="47.68" width="1.37" height="285.58"/><path class="cls-11" d="M96.11,41a4.43,4.43,0,0,1-4.22,4.62H60.5A4.43,4.43,0,0,1,56.27,41V28.89a4.44,4.44,0,0,1,4.23-4.62H91.89a4.44,4.44,0,0,1,4.22,4.62Z"/><path class="cls-12" d="M93.5,39.91A3.63,3.63,0,0,1,90,43.69H62.35a3.64,3.64,0,0,1-3.47-3.78V30a3.64,3.64,0,0,1,3.47-3.78H90A3.63,3.63,0,0,1,93.5,30Z"/><path class="cls-12" d="M86.84,38a2.23,2.23,0,0,1-2.12,2.32h-17A2.24,2.24,0,0,1,65.54,38V31.89a2.24,2.24,0,0,1,2.13-2.32h17a2.23,2.23,0,0,1,2.12,2.32Z"/><path class="cls-12" d="M76.13,35.47c-3.46,0-11.24,4.27-16.16,7.18a3.29,3.29,0,0,0,2.38,1H90A3.19,3.19,0,0,0,92,43C87,39.85,79.5,35.47,76.13,35.47Z"/><path class="cls-12" d="M76.13,34.43c-3.46,0-11.24-4.27-16.16-7.18a3.33,3.33,0,0,1,2.38-1H90a3.25,3.25,0,0,1,2,.67C87,30.05,79.5,34.43,76.13,34.43Z"/><path class="cls-12" d="M79.24,34.76a3,3,0,1,1-3-3A3,3,0,0,1,79.24,34.76Z"/><path class="cls-11" d="M79.24,34.16a3,3,0,1,1-3-3A3,3,0,0,1,79.24,34.16Z"/><path class="cls-13" d="M78.66,33.71a2.47,2.47,0,1,1-2.47-2.46A2.46,2.46,0,0,1,78.66,33.71Z"/><path class="cls-13" d="M57.18,38.46s.48-6.35.64-8.6c.18-2.57.61-4.3,4.43-4.3s14.07-.48,14.07-.48-10.79-.1-16-.2C58.06,25,57,26.64,57,29.54S57.18,38.46,57.18,38.46Z"/><polygon class="cls-8" points="56.44 69.59 46.8 79.02 55.71 84.74 66.42 76.01 56.44 69.59"/><polygon points="46.98 63.52 37.34 72.93 46.8 79.02 56.44 69.59 46.98 63.52"/><polygon points="66.42 76.01 55.71 84.74 85.17 103.67 95.89 94.95 66.42 76.01"/><polygon class="cls-8" points="39.94 58.99 32.84 70.04 37.34 72.93 46.98 63.52 39.94 58.99"/><polygon class="cls-8" points="119.55 110.15 118.37 109.39 107.66 118.12 112.45 121.2 119.55 110.15"/><polygon class="cls-8" points="95.89 94.95 85.17 103.67 96.16 110.73 106.87 102 95.89 94.95"/><polygon points="106.87 102 96.16 110.73 107.66 118.12 118.37 109.39 106.87 102"/><g class="cls-3"><polygon class="cls-8" points="89.61 90.91 75.23 81.68 67.62 87.19 35.19 66.38 32.84 70.04 37.34 72.93 46.8 79.02 55.71 84.74 85.17 103.67 96.16 110.73 107.66 118.12 112.45 121.2 115.06 117.13 82.4 96.7 89.61 90.91"/></g><polygon class="cls-10" points="36.8 65.39 40.07 61.25 116.24 108.89 40.07 59.79 36.8 65.39"/><polygon class="cls-8" points="50.02 102.55 62.6 109.37 70.92 103.16 58.34 96.34 50.02 102.55"/><polygon points="39.44 110.45 52.02 117.26 62.6 109.37 50.02 102.55 39.44 110.45"/><polygon class="cls-8" points="33.22 115.09 40.99 125.5 52.02 117.26 39.44 110.45 33.22 115.09"/><polygon points="58.34 96.34 70.92 103.16 77.78 98.04 66.08 90.57 58.34 96.34"/><polygon points="117.12 68.68 105.28 61.32 94.51 69.35 106.36 76.71 117.12 68.68"/><polygon class="cls-8" points="66.08 90.57 77.78 98.04 88.97 89.69 77.38 82.14 66.08 90.57"/><polygon class="cls-8" points="119.16 67.16 111.4 56.75 105.28 61.32 117.12 68.68 119.16 67.16"/><polygon class="cls-8" points="94.51 69.35 84.85 76.56 96.69 83.93 106.36 76.71 94.51 69.35"/><polygon points="77.38 82.14 88.97 89.69 96.69 83.93 84.85 76.56 77.38 82.14"/><g class="cls-3"><polygon class="cls-8" points="38.28 121.87 40.99 125.5 52.02 117.26 62.6 109.37 70.92 103.16 77.78 98.04 88.97 89.69 96.69 83.93 106.36 76.71 117.12 68.68 119.16 67.16 116.61 63.73 38.28 121.87"/></g><polygon class="cls-10" points="38.29 120.6 35.41 115.86 110.24 58.27 33.97 115.34 38.29 120.6"/><path class="cls-14" d="M82,88.41a.93.93,0,1,1-1.86,0,.93.93,0,1,1,1.86,0Z"/><path class="cls-15" d="M81.68,87.68a2.26,2.26,0,0,1-.84,1.09l-.42.26A.93.93,0,0,0,82,88.41.91.91,0,0,0,81.68,87.68Z"/><path class="cls-16" d="M81.79,88.41a.68.68,0,0,1-.68.68.68.68,0,1,1,.68-.68Z"/><path class="cls-17" d="M81.19,87.62a.9.9,0,0,0-.85.88C80.2,88.33,80.41,87.51,81.19,87.62Z"/><path class="cls-14" d="M82,93.93a.93.93,0,1,1-.93-.93A.92.92,0,0,1,82,93.93Z"/><path class="cls-15" d="M81.68,93.19a2.26,2.26,0,0,1-.84,1.09l-.42.26a.93.93,0,0,0,.69.31.92.92,0,0,0,.93-.92A.93.93,0,0,0,81.68,93.19Z"/><path class="cls-16" d="M81.79,93.93a.68.68,0,0,1-.68.67.68.68,0,0,1,0-1.35A.68.68,0,0,1,81.79,93.93Z"/><path class="cls-17" d="M81.19,93.14a.88.88,0,0,0-.85.87C80.2,93.84,80.41,93,81.19,93.14Z"/><path class="cls-14" d="M72.2,92a.93.93,0,1,1-.93-.93A.93.93,0,0,1,72.2,92Z"/><path class="cls-15" d="M71.83,91.25A2.15,2.15,0,0,1,71,92.33l-.41.26a.86.86,0,0,0,.68.31A.93.93,0,0,0,72.2,92,.88.88,0,0,0,71.83,91.25Z"/><path class="cls-16" d="M71.94,92a.67.67,0,0,1-1.34,0,.67.67,0,1,1,1.34,0Z"/><path class="cls-17" d="M71.34,91.19a.88.88,0,0,0-.84.87C70.35,91.89,70.57,91.08,71.34,91.19Z"/><path class="cls-14" d="M75.2,87.15a.93.93,0,1,1-.92-.93A.93.93,0,0,1,75.2,87.15Z"/><path class="cls-15" d="M74.84,86.42A2.17,2.17,0,0,1,74,87.5l-.41.27a1,1,0,0,0,.69.31.93.93,0,0,0,.92-.93A.91.91,0,0,0,74.84,86.42Z"/><path class="cls-16" d="M75,87.15a.68.68,0,1,1-.67-.68A.67.67,0,0,1,75,87.15Z"/><path class="cls-17" d="M74.35,86.36a.9.9,0,0,0-.85.87C73.36,87.06,73.58,86.24,74.35,86.36Z"/><rect class="cls-18" x="92.39" y="335.85" width="4.92" height="3.01"/><rect class="cls-18" x="55.07" y="335.85" width="4.92" height="3.01"/><rect class="cls-19" x="50.67" y="338.86" width="51.04" height="16.42"/><path class="cls-20" d="M90.41,338.86A21.05,21.05,0,0,1,85,344.78a28,28,0,0,1-14.69,5.91,85.25,85.25,0,0,1-9.46.18c-3.39-.05-6.78,0-10.17,0v4.41h51V338.86Z"/><polygon class="cls-17" points="51.79 347.62 51.94 340.13 86.35 339.7 51.29 339.34 51.79 347.62"/><rect class="cls-21" x="67.58" y="205.66" width="17.22" height="0.11"/><polygon class="cls-22" points="41.93 212.15 110.45 212.15 76.19 166.68 41.93 212.15"/><polygon class="cls-17" points="47.5 209.43 104.88 209.43 76.19 171.35 47.5 209.43"/><path class="cls-14" d="M77,171.06a.93.93,0,1,1-.93-.93A.93.93,0,0,1,77,171.06Z"/><path class="cls-15" d="M76.68,170.33a2.22,2.22,0,0,1-.84,1.08l-.41.27a.91.91,0,0,0,.68.31.93.93,0,0,0,.93-.93A.91.91,0,0,0,76.68,170.33Z"/><path class="cls-16" d="M76.79,171.06a.68.68,0,0,1-.68.68.68.68,0,0,1,0-1.36A.69.69,0,0,1,76.79,171.06Z"/><path class="cls-17" d="M76.19,170.28a.89.89,0,0,0-.85.86C75.2,171,75.42,170.16,76.19,170.28Z"/><path d="M63.29,203.11A1.75,1.75,0,1,0,65,204.85,1.74,1.74,0,0,0,63.29,203.11Z"/><path d="M69.16,203.11a1.75,1.75,0,1,0,1.74,1.74A1.74,1.74,0,0,0,69.16,203.11Z"/><path d="M75,203.11a1.75,1.75,0,1,0,1.74,1.74A1.74,1.74,0,0,0,75,203.11Z"/><path d="M80.92,203.11a1.75,1.75,0,1,0,1.74,1.74A1.74,1.74,0,0,0,80.92,203.11Z"/><path d="M86.79,203.11a1.75,1.75,0,1,0,1.74,1.74A1.73,1.73,0,0,0,86.79,203.11Z"/><rect x="61.15" y="201.37" width="28.5" height="1.22"/><polygon points="88.5 196.74 88.37 196.74 88.37 191.38 80.03 191.38 80.03 196.74 72.92 196.74 72.92 195.27 71.74 195.27 71.74 189.75 66.93 189.75 66.93 195.27 65.42 195.27 65.42 196.74 62.8 196.74 62.8 200.88 88.5 200.88 88.5 196.74"/><rect class="cls-17" x="81.31" y="192.36" width="6.2" height="3.59"/><path d="M70.72,184.54a2.49,2.49,0,0,1,3.3-1.69s.78-1.63,3.44-1.57,3.09,1.84,3.09,1.84,3-.5,3.27,1.48-2.51,2.33-3.18,1.11c0,1.43-3.38,1.9-4.12-.53a1.89,1.89,0,0,1-3.4.41,1.88,1.88,0,0,1-2.69,1.64c-.3,1.05-2.51.41-2.1-1.32S70.72,184.54,70.72,184.54Z"/><path class="cls-23" d="M86.75,191.85a98.79,98.79,0,0,1-22.22,12.23c-7.26,2.77-14.6,6.47-22.36,7.76l-.24.31h68.52L92.09,187.78C90.34,189.21,88.55,190.56,86.75,191.85Z"/><polygon class="cls-17" points="44.84 210.1 76 168.77 79.28 172.68 76.05 167.58 44.84 210.1"/></g></g></svg>