<svg id="Capa_1" data-name="Capa 1" xmlns="http://www.w3.org/2000/svg" viewBox="0 0 290 169.46"><defs><style>.cls-1{fill:#fff;}</style></defs><title>Vectores</title><path class="cls-1" d="M232.4,40.92c-27.42-7.44-58.35,6.21-72.72,30.47a57.86,57.86,0,0,0-3.59,7c-1.53-13.07-11.49-24.62-24-28.61a36,36,0,0,0-14.32-1.47A39.3,39.3,0,0,0,95.25,58.1C85.47,66.91,82,80,83.33,93.06c-8.92-17.28-31.8-25.8-49.86-18.56C22.6,78.85,14.41,88.56,10.82,99.67a39.74,39.74,0,0,0-1.68,17.41,34.34,34.34,0,0,0,1.12,5.29c.13.46.3.89.46,1.35H277.55a53,53,0,0,0,2.77-12c.1-.83.17-1.63.23-2.44.07-1,.1-2,.11-3C281.3,77.27,260.6,48.58,232.4,40.92Z"/></svg>